<svg width="17" height="16" viewBox="0 0 17 16" fill="none" xmlns="http://www.w3.org/2000/svg">
<path d="M8.50016 4.66667C8.50016 3.95942 8.21921 3.28115 7.71911 2.78105C7.21902 2.28095 6.54074 2 5.8335 2H1.8335V12H6.50016C7.0306 12 7.5393 12.2107 7.91438 12.5858C8.28945 12.9609 8.50016 13.4696 8.50016 14M8.50016 4.66667V14M8.50016 4.66667C8.50016 3.95942 8.78111 3.28115 9.28121 2.78105C9.78131 2.28095 10.4596 2 11.1668 2H15.1668V12H10.5002C9.96973 12 9.46102 12.2107 9.08595 12.5858C8.71088 12.9609 8.50016 13.4696 8.50016 14" stroke="white" stroke-width="1.6" stroke-linecap="round" stroke-linejoin="round"/>
</svg>
