<?xml version="1.0" encoding="UTF-8" standalone="no"?>
<svg
   width="17"
   height="16"
   viewBox="0 0 17 16"
   fill="none"
   version="1.1"
   id="svg1"
   sodipodi:docname="docs.svg"
   inkscape:version="1.3.2 (091e20ef0f, 2023-11-25, custom)"
   xmlns:inkscape="http://www.inkscape.org/namespaces/inkscape"
   xmlns:sodipodi="http://sodipodi.sourceforge.net/DTD/sodipodi-0.dtd"
   xmlns="http://www.w3.org/2000/svg"
   xmlns:svg="http://www.w3.org/2000/svg">
  <defs
     id="defs1" />
  <sodipodi:namedview
     id="namedview1"
     pagecolor="#ffffff"
     bordercolor="#000000"
     borderopacity="0.25"
     inkscape:showpageshadow="2"
     inkscape:pageopacity="0.0"
     inkscape:pagecheckerboard="0"
     inkscape:deskcolor="#d1d1d1"
     inkscape:zoom="73.75"
     inkscape:cx="8.4949153"
     inkscape:cy="8"
     inkscape:window-width="2560"
     inkscape:window-height="1384"
     inkscape:window-x="0"
     inkscape:window-y="0"
     inkscape:window-maximized="1"
     inkscape:current-layer="svg1" />
  <path
     d="M 8.50016,5.86667 C 8.50016,5.15942 8.21921,4.48115 7.71911,3.98105 7.21902,3.48095 6.54074,3.2 5.8335,3.2 h -4 v 10 h 4.66666 c 0.53044,0 1.03914,0.2107 1.41422,0.5858 0.37507,0.3751 0.58578,0.8838 0.58578,1.4142 m 0,-9.33333 V 15.2 m 0,-9.33333 c 0,-0.70725 0.28095,-1.38552 0.78105,-1.88562 C 9.78131,3.48095 10.4596,3.2 11.1668,3.2 h 4 v 10 H 10.5002 C 9.96973,13.2 9.46102,13.4107 9.08595,13.7858 8.71088,14.1609 8.50016,14.6696 8.50016,15.2"
     stroke="#ffffff"
     stroke-width="1.6"
     stroke-linecap="round"
     stroke-linejoin="round"
     id="path1" />
</svg>
